<svg xmlns="http://www.w3.org/2000/svg" viewBox="0 0 96 96" fill="none">
  <g transform="translate(0 96) scale(0.1 -0.1)" fill="currentColor">
    <path d="M21 834 c-38 -48 -30 -64 192 -394 215 -320 240 -349 289 -337 36 9 451 637 452 684 0 64 -20 73 -175 73 -75 0 -145 -3 -154 -6 -24 -9 -45 -58 -45 -104 l0 -40 45 0 c56 0 86 -34 67 -75 -9 -20 -9 -25 2 -25 26 0 46 -36 46 -83 0 -61 -22 -77 -107 -77 -62 0 -63 -1 -89 -39 -41 -63 -90 -60 -130 9 -17 29 -22 30 -84 30 -89 0 -110 15 -110 79 0 47 20 81 48 81 8 0 9 7 3 23 -16 41 7 71 59 77 l45 5 -1 47 c-1 88 -20 98 -190 98 -142 0 -143 0 -163 -26z"/>
  </g>
</svg>
